<mxfile modified="2022-01-03T00:21:36.778Z" host="app.diagrams.net" agent="5.0 (Macintosh; Intel Mac OS X 10_15_7) AppleWebKit/537.36 (KHTML, like Gecko) Chrome/96.0.4664.110 Safari/537.36" etag="dil2eBcKahlbEyZ58ezR" version="16.1.2" type="github">
  <diagram id="Ht1M8jgEwFfnCIfOTk4-" name="Page-1">
    <mxGraphModel dx="1720" dy="1073" grid="1" gridSize="10" guides="1" tooltips="1" connect="1" arrows="1" fold="1" page="1" pageScale="1" pageWidth="1169" pageHeight="827" background="none" math="0" shadow="0">
      <root>
        <mxCell id="0" />
        <mxCell id="1" parent="0" />
        <mxCell id="cmHhHQkWd-N9ZEzf0BfX-87" value="" style="rounded=0;whiteSpace=wrap;html=1;fontSize=10;fontColor=#ABABAB;strokeWidth=1;dashed=1;strokeColor=#707070;" vertex="1" parent="1">
          <mxGeometry x="240" y="298" width="100" height="190" as="geometry" />
        </mxCell>
        <mxCell id="UEzPUAAOIrF-is8g5C7q-74" value="AWS Cloud" style="points=[[0,0],[0.25,0],[0.5,0],[0.75,0],[1,0],[1,0.25],[1,0.5],[1,0.75],[1,1],[0.75,1],[0.5,1],[0.25,1],[0,1],[0,0.75],[0,0.5],[0,0.25]];outlineConnect=0;gradientColor=none;html=1;whiteSpace=wrap;fontSize=12;fontStyle=0;shape=mxgraph.aws4.group;grIcon=mxgraph.aws4.group_aws_cloud_alt;strokeColor=#232F3E;fillColor=none;verticalAlign=top;align=left;spacingLeft=30;fontColor=#232F3E;dashed=0;labelBackgroundColor=#ffffff;container=1;pointerEvents=0;collapsible=0;recursiveResize=0;" parent="1" vertex="1">
          <mxGeometry x="130" y="60" width="990" height="740" as="geometry" />
        </mxCell>
        <mxCell id="cmHhHQkWd-N9ZEzf0BfX-91" value="" style="rounded=0;whiteSpace=wrap;html=1;fontSize=10;fontColor=#ABABAB;strokeWidth=1;dashed=1;strokeColor=#707070;" vertex="1" parent="UEzPUAAOIrF-is8g5C7q-74">
          <mxGeometry x="729" y="223" width="200" height="159" as="geometry" />
        </mxCell>
        <mxCell id="cmHhHQkWd-N9ZEzf0BfX-78" value="" style="shape=image;html=1;verticalAlign=top;verticalLabelPosition=bottom;labelBackgroundColor=#ffffff;imageAspect=0;aspect=fixed;image=https://cdn0.iconfinder.com/data/icons/font-awesome-brands-vol-2/512/python-128.png" vertex="1" parent="UEzPUAAOIrF-is8g5C7q-74">
          <mxGeometry x="480" y="100" width="88" height="88" as="geometry" />
        </mxCell>
        <mxCell id="cmHhHQkWd-N9ZEzf0BfX-10" style="edgeStyle=orthogonalEdgeStyle;rounded=0;orthogonalLoop=1;jettySize=auto;html=1;exitX=1;exitY=0.5;exitDx=0;exitDy=0;exitPerimeter=0;" edge="1" parent="UEzPUAAOIrF-is8g5C7q-74" source="cmHhHQkWd-N9ZEzf0BfX-3" target="cmHhHQkWd-N9ZEzf0BfX-4">
          <mxGeometry relative="1" as="geometry" />
        </mxCell>
        <mxCell id="cmHhHQkWd-N9ZEzf0BfX-3" value="" style="sketch=0;points=[[0,0,0],[0.25,0,0],[0.5,0,0],[0.75,0,0],[1,0,0],[0,1,0],[0.25,1,0],[0.5,1,0],[0.75,1,0],[1,1,0],[0,0.25,0],[0,0.5,0],[0,0.75,0],[1,0.25,0],[1,0.5,0],[1,0.75,0]];outlineConnect=0;fontColor=#232F3E;gradientColor=#F54749;gradientDirection=north;fillColor=#C7131F;strokeColor=#ffffff;dashed=0;verticalLabelPosition=bottom;verticalAlign=top;align=center;html=1;fontSize=12;fontStyle=0;aspect=fixed;shape=mxgraph.aws4.resourceIcon;resIcon=mxgraph.aws4.amplify;" vertex="1" parent="UEzPUAAOIrF-is8g5C7q-74">
          <mxGeometry x="150" y="77.5" width="78" height="78" as="geometry" />
        </mxCell>
        <mxCell id="cmHhHQkWd-N9ZEzf0BfX-11" style="edgeStyle=orthogonalEdgeStyle;rounded=0;orthogonalLoop=1;jettySize=auto;html=1;entryX=0;entryY=0.5;entryDx=0;entryDy=0;entryPerimeter=0;" edge="1" parent="UEzPUAAOIrF-is8g5C7q-74" source="cmHhHQkWd-N9ZEzf0BfX-4" target="cmHhHQkWd-N9ZEzf0BfX-5">
          <mxGeometry relative="1" as="geometry" />
        </mxCell>
        <mxCell id="cmHhHQkWd-N9ZEzf0BfX-4" value="" style="outlineConnect=0;dashed=0;verticalLabelPosition=bottom;verticalAlign=top;align=center;html=1;shape=mxgraph.aws3.api_gateway;fillColor=#D9A741;gradientColor=none;" vertex="1" parent="UEzPUAAOIrF-is8g5C7q-74">
          <mxGeometry x="280" y="70" width="76.5" height="93" as="geometry" />
        </mxCell>
        <mxCell id="cmHhHQkWd-N9ZEzf0BfX-60" style="edgeStyle=orthogonalEdgeStyle;rounded=0;orthogonalLoop=1;jettySize=auto;html=1;exitX=0.5;exitY=1;exitDx=0;exitDy=0;exitPerimeter=0;entryX=0.5;entryY=0;entryDx=0;entryDy=0;entryPerimeter=0;" edge="1" parent="UEzPUAAOIrF-is8g5C7q-74" source="cmHhHQkWd-N9ZEzf0BfX-5" target="cmHhHQkWd-N9ZEzf0BfX-6">
          <mxGeometry relative="1" as="geometry" />
        </mxCell>
        <mxCell id="cmHhHQkWd-N9ZEzf0BfX-92" style="edgeStyle=orthogonalEdgeStyle;rounded=0;orthogonalLoop=1;jettySize=auto;html=1;exitX=1;exitY=0.79;exitDx=0;exitDy=0;exitPerimeter=0;entryX=0.5;entryY=0;entryDx=0;entryDy=0;fontSize=10;fontColor=#ABABAB;" edge="1" parent="UEzPUAAOIrF-is8g5C7q-74" source="cmHhHQkWd-N9ZEzf0BfX-5" target="cmHhHQkWd-N9ZEzf0BfX-91">
          <mxGeometry relative="1" as="geometry" />
        </mxCell>
        <mxCell id="cmHhHQkWd-N9ZEzf0BfX-5" value="" style="outlineConnect=0;dashed=0;verticalLabelPosition=bottom;verticalAlign=top;align=center;html=1;shape=mxgraph.aws3.lambda;fillColor=#F58534;gradientColor=none;" vertex="1" parent="UEzPUAAOIrF-is8g5C7q-74">
          <mxGeometry x="441.5" y="130" width="76.5" height="93" as="geometry" />
        </mxCell>
        <mxCell id="cmHhHQkWd-N9ZEzf0BfX-39" value="DynamoDB" style="text;html=1;align=center;verticalAlign=middle;resizable=0;points=[];autosize=1;strokeColor=none;fillColor=none;" vertex="1" parent="UEzPUAAOIrF-is8g5C7q-74">
          <mxGeometry x="438" y="328" width="80" height="20" as="geometry" />
        </mxCell>
        <mxCell id="cmHhHQkWd-N9ZEzf0BfX-47" value="" style="outlineConnect=0;dashed=0;verticalLabelPosition=bottom;verticalAlign=top;align=center;html=1;shape=mxgraph.aws3.internet_gateway;fillColor=#F58534;gradientColor=none;" vertex="1" parent="UEzPUAAOIrF-is8g5C7q-74">
          <mxGeometry x="30" y="520" width="69" height="72" as="geometry" />
        </mxCell>
        <mxCell id="cmHhHQkWd-N9ZEzf0BfX-49" value="" style="sketch=0;points=[[0,0,0],[0.25,0,0],[0.5,0,0],[0.75,0,0],[1,0,0],[0,1,0],[0.25,1,0],[0.5,1,0],[0.75,1,0],[1,1,0],[0,0.25,0],[0,0.5,0],[0,0.75,0],[1,0.25,0],[1,0.5,0],[1,0.75,0]];outlineConnect=0;fontColor=#232F3E;gradientColor=#FF4F8B;gradientDirection=north;fillColor=#BC1356;strokeColor=#ffffff;dashed=0;verticalLabelPosition=bottom;verticalAlign=top;align=center;html=1;fontSize=12;fontStyle=0;aspect=fixed;shape=mxgraph.aws4.resourceIcon;resIcon=mxgraph.aws4.sns;" vertex="1" parent="UEzPUAAOIrF-is8g5C7q-74">
          <mxGeometry x="121.5" y="251" width="78" height="78" as="geometry" />
        </mxCell>
        <mxCell id="cmHhHQkWd-N9ZEzf0BfX-50" value="" style="outlineConnect=0;dashed=0;verticalLabelPosition=bottom;verticalAlign=top;align=center;html=1;shape=mxgraph.aws3.ses;fillColor=#D9A741;gradientColor=none;" vertex="1" parent="UEzPUAAOIrF-is8g5C7q-74">
          <mxGeometry x="120.75" y="324" width="79.5" height="93" as="geometry" />
        </mxCell>
        <mxCell id="cmHhHQkWd-N9ZEzf0BfX-55" value="" style="sketch=0;points=[[0,0,0],[0.25,0,0],[0.5,0,0],[0.75,0,0],[1,0,0],[0,1,0],[0.25,1,0],[0.5,1,0],[0.75,1,0],[1,1,0],[0,0.25,0],[0,0.5,0],[0,0.75,0],[1,0.25,0],[1,0.5,0],[1,0.75,0]];outlineConnect=0;fontColor=#232F3E;gradientColor=#F54749;gradientDirection=north;fillColor=#C7131F;strokeColor=#ffffff;dashed=0;verticalLabelPosition=bottom;verticalAlign=top;align=center;html=1;fontSize=12;fontStyle=0;aspect=fixed;shape=mxgraph.aws4.resourceIcon;resIcon=mxgraph.aws4.secrets_manager;" vertex="1" parent="UEzPUAAOIrF-is8g5C7q-74">
          <mxGeometry x="835" y="251" width="78" height="78" as="geometry" />
        </mxCell>
        <mxCell id="cmHhHQkWd-N9ZEzf0BfX-56" value="" style="outlineConnect=0;dashed=0;verticalLabelPosition=bottom;verticalAlign=top;align=center;html=1;shape=mxgraph.aws3.parameter_store;fillColor=#759C3E;gradientColor=none;" vertex="1" parent="UEzPUAAOIrF-is8g5C7q-74">
          <mxGeometry x="750" y="251" width="75" height="102" as="geometry" />
        </mxCell>
        <mxCell id="cmHhHQkWd-N9ZEzf0BfX-24" value="VPC" style="points=[[0,0],[0.25,0],[0.5,0],[0.75,0],[1,0],[1,0.25],[1,0.5],[1,0.75],[1,1],[0.75,1],[0.5,1],[0.25,1],[0,1],[0,0.75],[0,0.5],[0,0.25]];outlineConnect=0;gradientColor=none;html=1;whiteSpace=wrap;fontSize=12;fontStyle=0;container=1;pointerEvents=0;collapsible=0;recursiveResize=0;shape=mxgraph.aws4.group;grIcon=mxgraph.aws4.group_vpc;strokeColor=#248814;fillColor=none;verticalAlign=top;align=left;spacingLeft=30;fontColor=#AAB7B8;dashed=0;" vertex="1" parent="UEzPUAAOIrF-is8g5C7q-74">
          <mxGeometry x="269" y="400" width="460" height="320" as="geometry" />
        </mxCell>
        <mxCell id="cmHhHQkWd-N9ZEzf0BfX-42" value="Private subnet" style="points=[[0,0],[0.25,0],[0.5,0],[0.75,0],[1,0],[1,0.25],[1,0.5],[1,0.75],[1,1],[0.75,1],[0.5,1],[0.25,1],[0,1],[0,0.75],[0,0.5],[0,0.25]];outlineConnect=0;gradientColor=none;html=1;whiteSpace=wrap;fontSize=12;fontStyle=0;container=1;pointerEvents=0;collapsible=0;recursiveResize=0;shape=mxgraph.aws4.group;grIcon=mxgraph.aws4.group_security_group;grStroke=0;strokeColor=#147EBA;fillColor=#E6F2F8;verticalAlign=top;align=left;spacingLeft=30;fontColor=#147EBA;dashed=0;" vertex="1" parent="cmHhHQkWd-N9ZEzf0BfX-24">
          <mxGeometry x="270" y="90" width="80" height="200" as="geometry" />
        </mxCell>
        <mxCell id="cmHhHQkWd-N9ZEzf0BfX-73" value="Private subnet" style="points=[[0,0],[0.25,0],[0.5,0],[0.75,0],[1,0],[1,0.25],[1,0.5],[1,0.75],[1,1],[0.75,1],[0.5,1],[0.25,1],[0,1],[0,0.75],[0,0.5],[0,0.25]];outlineConnect=0;gradientColor=none;html=1;whiteSpace=wrap;fontSize=12;fontStyle=0;container=1;pointerEvents=0;collapsible=0;recursiveResize=0;shape=mxgraph.aws4.group;grIcon=mxgraph.aws4.group_security_group;grStroke=0;strokeColor=#147EBA;fillColor=#E6F2F8;verticalAlign=top;align=left;spacingLeft=30;fontColor=#147EBA;dashed=0;" vertex="1" parent="cmHhHQkWd-N9ZEzf0BfX-24">
          <mxGeometry x="365" y="90" width="88" height="200" as="geometry" />
        </mxCell>
        <mxCell id="cmHhHQkWd-N9ZEzf0BfX-43" value="Public subnet" style="points=[[0,0],[0.25,0],[0.5,0],[0.75,0],[1,0],[1,0.25],[1,0.5],[1,0.75],[1,1],[0.75,1],[0.5,1],[0.25,1],[0,1],[0,0.75],[0,0.5],[0,0.25]];outlineConnect=0;gradientColor=none;html=1;whiteSpace=wrap;fontSize=12;fontStyle=0;container=1;pointerEvents=0;collapsible=0;recursiveResize=0;shape=mxgraph.aws4.group;grIcon=mxgraph.aws4.group_security_group;grStroke=0;strokeColor=#248814;fillColor=#E9F3E6;verticalAlign=top;align=left;spacingLeft=30;fontColor=#248814;dashed=0;" vertex="1" parent="cmHhHQkWd-N9ZEzf0BfX-24">
          <mxGeometry x="30" y="84" width="150" height="206" as="geometry" />
        </mxCell>
        <mxCell id="cmHhHQkWd-N9ZEzf0BfX-26" value="" style="outlineConnect=0;dashed=0;verticalLabelPosition=bottom;verticalAlign=top;align=center;html=1;shape=mxgraph.aws3.ec2;fillColor=#F58534;gradientColor=none;" vertex="1" parent="cmHhHQkWd-N9ZEzf0BfX-43">
          <mxGeometry x="36.75" y="65.5" width="76.5" height="93" as="geometry" />
        </mxCell>
        <mxCell id="cmHhHQkWd-N9ZEzf0BfX-30" style="edgeStyle=orthogonalEdgeStyle;rounded=0;orthogonalLoop=1;jettySize=auto;html=1;exitX=0;exitY=0.5;exitDx=0;exitDy=0;exitPerimeter=0;entryX=1;entryY=0.5;entryDx=0;entryDy=0;entryPerimeter=0;" edge="1" parent="cmHhHQkWd-N9ZEzf0BfX-24" source="cmHhHQkWd-N9ZEzf0BfX-13" target="cmHhHQkWd-N9ZEzf0BfX-26">
          <mxGeometry relative="1" as="geometry">
            <mxPoint x="241.5" y="223" as="targetPoint" />
          </mxGeometry>
        </mxCell>
        <mxCell id="cmHhHQkWd-N9ZEzf0BfX-79" value="" style="shape=image;html=1;verticalAlign=top;verticalLabelPosition=bottom;labelBackgroundColor=#ffffff;imageAspect=0;aspect=fixed;image=https://cdn0.iconfinder.com/data/icons/font-awesome-brands-vol-2/512/python-128.png" vertex="1" parent="cmHhHQkWd-N9ZEzf0BfX-24">
          <mxGeometry x="314.25" y="230" width="88" height="88" as="geometry" />
        </mxCell>
        <mxCell id="cmHhHQkWd-N9ZEzf0BfX-13" value="" style="outlineConnect=0;dashed=0;verticalLabelPosition=bottom;verticalAlign=top;align=center;html=1;shape=mxgraph.aws3.lambda;fillColor=#F58534;gradientColor=none;" vertex="1" parent="cmHhHQkWd-N9ZEzf0BfX-24">
          <mxGeometry x="320" y="150" width="76.5" height="93" as="geometry" />
        </mxCell>
        <mxCell id="cmHhHQkWd-N9ZEzf0BfX-85" value="スクレイピング" style="text;html=1;align=center;verticalAlign=middle;resizable=0;points=[];autosize=1;strokeColor=none;fillColor=none;" vertex="1" parent="cmHhHQkWd-N9ZEzf0BfX-24">
          <mxGeometry x="180" y="200" width="100" height="20" as="geometry" />
        </mxCell>
        <mxCell id="cmHhHQkWd-N9ZEzf0BfX-6" value="" style="sketch=0;points=[[0,0,0],[0.25,0,0],[0.5,0,0],[0.75,0,0],[1,0,0],[0,1,0],[0.25,1,0],[0.5,1,0],[0.75,1,0],[1,1,0],[0,0.25,0],[0,0.5,0],[0,0.75,0],[1,0.25,0],[1,0.5,0],[1,0.75,0]];outlineConnect=0;fontColor=#232F3E;gradientColor=#4D72F3;gradientDirection=north;fillColor=#3334B9;strokeColor=#ffffff;dashed=0;verticalLabelPosition=bottom;verticalAlign=top;align=center;html=1;fontSize=12;fontStyle=0;aspect=fixed;shape=mxgraph.aws4.resourceIcon;resIcon=mxgraph.aws4.dynamodb;" vertex="1" parent="UEzPUAAOIrF-is8g5C7q-74">
          <mxGeometry x="439" y="299" width="78" height="78" as="geometry" />
        </mxCell>
        <mxCell id="cmHhHQkWd-N9ZEzf0BfX-62" style="edgeStyle=orthogonalEdgeStyle;rounded=0;orthogonalLoop=1;jettySize=auto;html=1;exitX=0.03;exitY=0.5;exitDx=0;exitDy=0;exitPerimeter=0;entryX=1;entryY=0.79;entryDx=0;entryDy=0;entryPerimeter=0;" edge="1" parent="UEzPUAAOIrF-is8g5C7q-74" source="cmHhHQkWd-N9ZEzf0BfX-29" target="cmHhHQkWd-N9ZEzf0BfX-13">
          <mxGeometry relative="1" as="geometry" />
        </mxCell>
        <mxCell id="cmHhHQkWd-N9ZEzf0BfX-29" value="" style="outlineConnect=0;dashed=0;verticalLabelPosition=bottom;verticalAlign=top;align=center;html=1;shape=mxgraph.aws3.event_time_based;fillColor=#759C3E;gradientColor=none;" vertex="1" parent="UEzPUAAOIrF-is8g5C7q-74">
          <mxGeometry x="835" y="637.5" width="63" height="82.5" as="geometry" />
        </mxCell>
        <mxCell id="cmHhHQkWd-N9ZEzf0BfX-36" value="" style="shape=image;html=1;verticalAlign=top;verticalLabelPosition=bottom;labelBackgroundColor=#ffffff;imageAspect=0;aspect=fixed;image=https://cdn1.iconfinder.com/data/icons/unicons-line-vol-5/24/react-128.png" vertex="1" parent="UEzPUAAOIrF-is8g5C7q-74">
          <mxGeometry x="80" y="5" width="108" height="108" as="geometry" />
        </mxCell>
        <mxCell id="cmHhHQkWd-N9ZEzf0BfX-61" style="edgeStyle=orthogonalEdgeStyle;rounded=0;orthogonalLoop=1;jettySize=auto;html=1;exitX=0.5;exitY=0;exitDx=0;exitDy=0;exitPerimeter=0;entryX=0.5;entryY=1;entryDx=0;entryDy=0;entryPerimeter=0;" edge="1" parent="UEzPUAAOIrF-is8g5C7q-74" source="cmHhHQkWd-N9ZEzf0BfX-13" target="cmHhHQkWd-N9ZEzf0BfX-6">
          <mxGeometry relative="1" as="geometry">
            <Array as="points">
              <mxPoint x="627" y="440" />
              <mxPoint x="478" y="440" />
            </Array>
          </mxGeometry>
        </mxCell>
        <mxCell id="cmHhHQkWd-N9ZEzf0BfX-76" style="edgeStyle=orthogonalEdgeStyle;rounded=0;orthogonalLoop=1;jettySize=auto;html=1;exitX=0;exitY=0.5;exitDx=0;exitDy=0;exitPerimeter=0;" edge="1" parent="UEzPUAAOIrF-is8g5C7q-74" source="cmHhHQkWd-N9ZEzf0BfX-26" target="cmHhHQkWd-N9ZEzf0BfX-47">
          <mxGeometry relative="1" as="geometry" />
        </mxCell>
        <mxCell id="cmHhHQkWd-N9ZEzf0BfX-89" style="edgeStyle=orthogonalEdgeStyle;rounded=0;orthogonalLoop=1;jettySize=auto;html=1;exitX=1;exitY=0.21;exitDx=0;exitDy=0;exitPerimeter=0;entryX=1;entryY=0.21;entryDx=0;entryDy=0;entryPerimeter=0;" edge="1" parent="UEzPUAAOIrF-is8g5C7q-74" source="cmHhHQkWd-N9ZEzf0BfX-4" target="cmHhHQkWd-N9ZEzf0BfX-13">
          <mxGeometry relative="1" as="geometry">
            <Array as="points">
              <mxPoint x="666" y="90" />
            </Array>
          </mxGeometry>
        </mxCell>
        <mxCell id="cmHhHQkWd-N9ZEzf0BfX-93" style="edgeStyle=orthogonalEdgeStyle;rounded=0;orthogonalLoop=1;jettySize=auto;html=1;exitX=1;exitY=0.5;exitDx=0;exitDy=0;exitPerimeter=0;entryX=0.5;entryY=1;entryDx=0;entryDy=0;fontSize=10;fontColor=#ABABAB;" edge="1" parent="UEzPUAAOIrF-is8g5C7q-74" source="cmHhHQkWd-N9ZEzf0BfX-13" target="cmHhHQkWd-N9ZEzf0BfX-91">
          <mxGeometry relative="1" as="geometry" />
        </mxCell>
        <mxCell id="cmHhHQkWd-N9ZEzf0BfX-9" style="edgeStyle=orthogonalEdgeStyle;rounded=0;orthogonalLoop=1;jettySize=auto;html=1;exitX=1;exitY=0.75;exitDx=0;exitDy=0;entryX=0;entryY=0.5;entryDx=0;entryDy=0;entryPerimeter=0;" edge="1" parent="1" source="cmHhHQkWd-N9ZEzf0BfX-7" target="cmHhHQkWd-N9ZEzf0BfX-3">
          <mxGeometry relative="1" as="geometry" />
        </mxCell>
        <mxCell id="cmHhHQkWd-N9ZEzf0BfX-7" value="" style="shape=actor;whiteSpace=wrap;html=1;" vertex="1" parent="1">
          <mxGeometry x="40" y="165" width="40" height="60" as="geometry" />
        </mxCell>
        <mxCell id="cmHhHQkWd-N9ZEzf0BfX-22" value="" style="outlineConnect=0;dashed=0;verticalLabelPosition=bottom;verticalAlign=top;align=center;html=1;shape=mxgraph.aws3.internet_2;fillColor=#D2D3D3;gradientColor=none;" vertex="1" parent="1">
          <mxGeometry x="10.5" y="578" width="79.5" height="54" as="geometry" />
        </mxCell>
        <mxCell id="cmHhHQkWd-N9ZEzf0BfX-52" value="ユーザー" style="text;html=1;align=center;verticalAlign=middle;resizable=0;points=[];autosize=1;strokeColor=none;fillColor=none;" vertex="1" parent="1">
          <mxGeometry x="30" y="240" width="60" height="20" as="geometry" />
        </mxCell>
        <mxCell id="cmHhHQkWd-N9ZEzf0BfX-53" value="" style="shape=actor;whiteSpace=wrap;html=1;" vertex="1" parent="1">
          <mxGeometry x="35" y="347.5" width="40" height="60" as="geometry" />
        </mxCell>
        <mxCell id="cmHhHQkWd-N9ZEzf0BfX-54" value="開発者" style="text;html=1;align=center;verticalAlign=middle;resizable=0;points=[];autosize=1;strokeColor=none;fillColor=none;" vertex="1" parent="1">
          <mxGeometry x="30" y="417.5" width="50" height="20" as="geometry" />
        </mxCell>
        <mxCell id="cmHhHQkWd-N9ZEzf0BfX-63" style="edgeStyle=orthogonalEdgeStyle;rounded=0;orthogonalLoop=1;jettySize=auto;html=1;exitX=0;exitY=0.5;exitDx=0;exitDy=0;entryX=1;entryY=0.75;entryDx=0;entryDy=0;" edge="1" parent="1" source="cmHhHQkWd-N9ZEzf0BfX-87" target="cmHhHQkWd-N9ZEzf0BfX-53">
          <mxGeometry relative="1" as="geometry" />
        </mxCell>
        <mxCell id="cmHhHQkWd-N9ZEzf0BfX-77" style="edgeStyle=orthogonalEdgeStyle;rounded=0;orthogonalLoop=1;jettySize=auto;html=1;exitX=0;exitY=0.5;exitDx=0;exitDy=0;exitPerimeter=0;entryX=1;entryY=0.7;entryDx=0;entryDy=0;entryPerimeter=0;" edge="1" parent="1" source="cmHhHQkWd-N9ZEzf0BfX-47" target="cmHhHQkWd-N9ZEzf0BfX-22">
          <mxGeometry relative="1" as="geometry" />
        </mxCell>
        <mxCell id="cmHhHQkWd-N9ZEzf0BfX-69" style="edgeStyle=orthogonalEdgeStyle;rounded=0;orthogonalLoop=1;jettySize=auto;html=1;exitX=0;exitY=0.21;exitDx=0;exitDy=0;exitPerimeter=0;entryX=1;entryY=0.5;entryDx=0;entryDy=0;" edge="1" parent="1" source="cmHhHQkWd-N9ZEzf0BfX-13" target="cmHhHQkWd-N9ZEzf0BfX-87">
          <mxGeometry relative="1" as="geometry">
            <Array as="points">
              <mxPoint x="720" y="520" />
              <mxPoint x="550" y="520" />
              <mxPoint x="550" y="393" />
            </Array>
          </mxGeometry>
        </mxCell>
        <mxCell id="cmHhHQkWd-N9ZEzf0BfX-68" style="edgeStyle=orthogonalEdgeStyle;rounded=0;orthogonalLoop=1;jettySize=auto;html=1;exitX=0;exitY=0.79;exitDx=0;exitDy=0;exitPerimeter=0;entryX=1;entryY=0.5;entryDx=0;entryDy=0;" edge="1" parent="1" source="cmHhHQkWd-N9ZEzf0BfX-5" target="cmHhHQkWd-N9ZEzf0BfX-87">
          <mxGeometry relative="1" as="geometry">
            <Array as="points">
              <mxPoint x="550" y="264" />
              <mxPoint x="550" y="393" />
            </Array>
          </mxGeometry>
        </mxCell>
      </root>
    </mxGraphModel>
  </diagram>
</mxfile>
